<?xml version="1.0" encoding="UTF-8"?>
<svg width="87px" height="14px" viewBox="0 0 87 14" version="1.1" xmlns="http://www.w3.org/2000/svg" xmlns:xlink="http://www.w3.org/1999/xlink">
    <!-- Generator: Sketch 43.1 (39012) - http://www.bohemiancoding.com/sketch -->
    <title>Android 下载</title>
    <desc>Created with Sketch.</desc>
    <defs></defs>
    <g id="v_1.3.0714" stroke="none" stroke-width="1" fill="none" fill-rule="evenodd">
        <g id="web端-下载" transform="translate(-560.000000, -582.000000)" fill="#FFFFFF">
            <path d="M570.18457,594 L568.673828,594 L567.59375,591.101562 L563.18457,591.101562 L562.166016,594 L560.655273,594 L564.688477,583.411133 L566.151367,583.411133 L570.18457,594 Z M567.169922,589.905273 L565.570312,585.50293 C565.520182,585.361653 565.465495,585.115562 565.40625,584.764648 L565.37207,584.764648 C565.32194,585.08366 565.264974,585.329752 565.201172,585.50293 L563.615234,589.905273 L567.169922,589.905273 Z M577.936523,594 L576.603516,594 L576.603516,589.700195 C576.603516,588.146151 576.036138,587.369141 574.901367,587.369141 C574.313474,587.369141 573.830406,587.587888 573.452148,588.025391 C573.073891,588.462893 572.884766,589.016598 572.884766,589.686523 L572.884766,594 L571.544922,594 L571.544922,586.439453 L572.884766,586.439453 L572.884766,587.69043 L572.912109,587.69043 C573.481774,586.737951 574.308914,586.261719 575.393555,586.261719 C576.222986,586.261719 576.854165,586.527178 577.287109,587.058105 C577.720054,587.589033 577.936523,588.362625 577.936523,589.378906 L577.936523,594 Z M586.734375,594 L585.394531,594 L585.394531,592.742188 L585.367188,592.742188 C584.815752,593.699224 583.95899,594.177734 582.796875,594.177734 C581.839839,594.177734 581.078779,593.83708 580.513672,593.155762 C579.948565,592.474443 579.666016,591.555019 579.666016,590.397461 C579.666016,589.148757 579.985023,588.147302 580.623047,587.393066 C581.261071,586.638831 582.095047,586.261719 583.125,586.261719 C584.154953,586.261719 584.902341,586.662756 585.367188,587.464844 L585.394531,587.464844 L585.394531,582.80957 L586.734375,582.80957 L586.734375,594 Z M585.401367,589.501953 C585.401367,588.89583 585.201988,588.388837 584.803223,587.980957 C584.404458,587.573077 583.913414,587.369141 583.330078,587.369141 C582.619137,587.369141 582.058596,587.6346 581.648438,588.165527 C581.238279,588.696454 581.033203,589.419917 581.033203,590.335938 C581.033203,591.179041 581.230304,591.845538 581.624512,592.335449 C582.018719,592.825361 582.543942,593.070312 583.200195,593.070312 C583.847334,593.070312 584.375975,592.829918 584.786133,592.349121 C585.196291,591.868324 585.401367,591.270186 585.401367,590.554688 L585.401367,589.501953 Z M593.180664,587.765625 C592.957356,587.606119 592.649742,587.526367 592.257812,587.526367 C591.738279,587.526367 591.309898,587.769041 590.972656,588.254395 C590.635415,588.739749 590.466797,589.378902 590.466797,590.171875 L590.466797,594 L589.126953,594 L589.126953,586.439453 L590.466797,586.439453 L590.466797,587.977539 L590.494141,587.977539 C590.876955,586.865554 591.537756,586.30957 592.476562,586.30957 C592.781903,586.30957 593.016601,586.34375 593.180664,586.412109 L593.180664,587.765625 Z M593.966797,590.301758 C593.966797,589.053054 594.315426,588.067549 595.012695,587.345215 C595.709964,586.622881 596.655593,586.261719 597.849609,586.261719 C598.984381,586.261719 599.874183,586.609209 600.519043,587.304199 C601.163903,587.99919 601.486328,588.959629 601.486328,590.185547 C601.486328,591.379563 601.142256,592.343421 600.454102,593.077148 C599.765947,593.810876 598.843105,594.177734 597.685547,594.177734 C596.555333,594.177734 595.652998,593.822269 594.978516,593.111328 C594.304033,592.400387 593.966797,591.463873 593.966797,590.301758 Z M595.333984,590.260742 C595.333984,591.131189 595.553871,591.817055 595.993652,592.318359 C596.433433,592.819664 597.024736,593.070312 597.767578,593.070312 C598.533207,593.070312 599.116534,592.825361 599.517578,592.335449 C599.918622,591.845538 600.119141,591.142583 600.119141,590.226562 C600.119141,589.305985 599.918622,588.599612 599.517578,588.107422 C599.116534,587.615232 598.533207,587.369141 597.767578,587.369141 C597.015621,587.369141 596.42204,587.626625 595.986816,588.141602 C595.551593,588.656578 595.333984,589.362951 595.333984,590.260742 Z M603.208984,583.773438 C603.208984,583.536457 603.289875,583.337078 603.45166,583.175293 C603.613445,583.013508 603.812824,582.932617 604.049805,582.932617 C604.291342,582.932617 604.495279,583.012369 604.661621,583.171875 C604.827963,583.331381 604.911133,583.5319 604.911133,583.773438 C604.911133,584.010418 604.827963,584.207519 604.661621,584.364746 C604.495279,584.521973 604.291342,584.600586 604.049805,584.600586 C603.808267,584.600586 603.607748,584.521973 603.448242,584.364746 C603.288736,584.207519 603.208984,584.010418 603.208984,583.773438 Z M603.366211,594 L603.366211,586.439453 L604.706055,586.439453 L604.706055,594 L603.366211,594 Z M613.661133,594 L612.321289,594 L612.321289,592.742188 L612.293945,592.742188 C611.74251,593.699224 610.885748,594.177734 609.723633,594.177734 C608.766597,594.177734 608.005537,593.83708 607.44043,593.155762 C606.875323,592.474443 606.592773,591.555019 606.592773,590.397461 C606.592773,589.148757 606.911781,588.147302 607.549805,587.393066 C608.187829,586.638831 609.021805,586.261719 610.051758,586.261719 C611.081711,586.261719 611.829099,586.662756 612.293945,587.464844 L612.321289,587.464844 L612.321289,582.80957 L613.661133,582.80957 L613.661133,594 Z M612.328125,589.501953 C612.328125,588.89583 612.128745,588.388837 611.72998,587.980957 C611.331215,587.573077 610.840172,587.369141 610.256836,587.369141 C609.545895,587.369141 608.985354,587.6346 608.575195,588.165527 C608.165037,588.696454 607.959961,589.419917 607.959961,590.335938 C607.959961,591.179041 608.157062,591.845538 608.55127,592.335449 C608.945477,592.825361 609.4707,593.070312 610.126953,593.070312 C610.774092,593.070312 611.302732,592.829918 611.712891,592.349121 C612.123049,591.868324 612.328125,591.270186 612.328125,590.554688 L612.328125,589.501953 Z M619.355469,583.493164 L632.644531,583.493164 L632.644531,584.614258 L626,584.614258 L626,587.594727 L626.628906,586.719727 C628.716156,587.950201 630.466139,589.057612 631.878906,590.041992 L631.072266,591.149414 C629.659498,590.064773 627.96876,588.920904 626,587.717773 L626,595.743164 L624.755859,595.743164 L624.755859,584.614258 L619.355469,584.614258 L619.355469,583.493164 Z M639.302734,594.90918 C640.382818,594.170895 641.353511,593.279953 642.214844,592.236328 C641.749998,590.832675 641.453777,589.062185 641.326172,586.924805 L633.273438,586.924805 L633.273438,586.008789 L636.677734,586.008789 L636.677734,584.737305 L633.833984,584.737305 L633.833984,583.875977 L636.677734,583.875977 L636.677734,582.481445 L637.689453,582.481445 L637.689453,583.875977 L640.382812,583.875977 L640.382812,584.737305 L637.689453,584.737305 L637.689453,586.008789 L641.271484,586.008789 C641.216797,584.924148 641.166667,583.725592 641.121094,582.413086 L642.173828,582.413086 C642.178385,583.693691 642.212565,584.892247 642.276367,586.008789 L646.822266,586.008789 L646.822266,586.924805 L642.331055,586.924805 C642.426758,588.606454 642.643227,590.039708 642.980469,591.224609 C643.668623,590.244787 644.274737,589.153326 644.798828,587.950195 L645.742188,588.387695 C645.040361,589.896166 644.251958,591.229161 643.376953,592.386719 C643.659507,593.056644 643.992186,593.619464 644.375,594.075195 C644.61198,594.348634 644.830728,594.485352 645.03125,594.485352 C645.277345,594.485352 645.441406,594.303062 645.523438,593.938477 C645.632813,593.446287 645.73763,592.826501 645.837891,592.079102 C646.202476,592.243165 646.530597,592.366211 646.822266,592.448242 C646.703775,593.222986 646.571615,593.91113 646.425781,594.512695 C646.197916,595.323897 645.792321,595.729492 645.208984,595.729492 C644.543616,595.729492 643.910159,595.305668 643.308594,594.458008 C643.062499,594.120767 642.839194,593.735679 642.638672,593.302734 C641.854814,594.200525 641.011723,594.972979 640.109375,595.620117 C639.835936,595.31022 639.567059,595.073243 639.302734,594.90918 Z M635.201172,590.780273 L637.074219,590.780273 L637.074219,589.522461 L638.044922,589.522461 L638.044922,590.780273 L640.628906,590.780273 L640.628906,591.641602 L638.044922,591.641602 L638.044922,592.913086 C638.87891,592.844726 639.758459,592.77181 640.683594,592.694336 C640.65625,592.986004 640.642578,593.282225 640.642578,593.583008 C639.822262,593.637696 638.956385,593.703776 638.044922,593.78125 L638.044922,595.78418 L637.074219,595.78418 L637.074219,593.870117 C636.00325,593.961263 634.873053,594.070637 633.683594,594.198242 L633.464844,593.213867 C634.549485,593.154622 635.752598,593.077149 637.074219,592.981445 L637.074219,591.641602 L634.066406,591.641602 L634.066406,590.75293 C634.435549,590.274412 634.79785,589.741214 635.15332,589.15332 L633.601562,589.15332 L633.601562,588.291992 L635.652344,588.291992 C635.875652,587.886391 636.0944,587.45801 636.308594,587.006836 L637.320312,587.321289 C637.133463,587.663088 636.951173,587.986652 636.773438,588.291992 L640.738281,588.291992 L640.738281,589.15332 L636.260742,589.15332 C635.882485,589.773115 635.529299,590.315427 635.201172,590.780273 Z M643.089844,583.411133 L643.759766,582.741211 C644.680343,583.433923 645.427732,584.049151 646.001953,584.586914 L645.222656,585.379883 C644.602861,584.714515 643.891931,584.058271 643.089844,583.411133 Z" id="Android-下载"></path>
        </g>
    </g>
</svg>