<?xml version="1.0" encoding="UTF-8"?>
<svg width="36px" height="32px" viewBox="0 0 36 32" version="1.1" xmlns="http://www.w3.org/2000/svg" xmlns:xlink="http://www.w3.org/1999/xlink">
    <!-- Generator: Sketch 43.1 (39012) - http://www.bohemiancoding.com/sketch -->
    <title>diannao</title>
    <desc>Created with Sketch.</desc>
    <defs></defs>
    <g id="下载" stroke="none" stroke-width="1" fill="none" fill-rule="evenodd">
        <g id="首页-copy-3" transform="translate(-377.000000, -4534.000000)" fill="#FFFFFF">
            <path d="M410.72297,4534.00546 L379.249278,4534.00546 C377.831732,4534.00546 377,4534.82066 377,4536.27339 L377,4557.80788 C377,4559.26086 377.831732,4560.07606 379.249278,4560.07606 L392.739886,4560.07606 L392.739886,4563.4781 L385.991512,4563.4781 C385.282769,4563.4781 384.867023,4563.88546 384.867023,4564.61192 L384.867023,4565.74603 L405.099625,4565.74603 L405.099625,4564.60603 C405.099625,4563.87975 404.683579,4563.47215 403.974836,4563.47215 L397.232602,4563.47215 L397.232602,4560.07011 L410.72297,4560.07011 C412.140756,4560.07011 412.972488,4559.25491 412.972488,4557.80194 L412.972488,4536.27339 C412.972488,4534.82066 412.140756,4534.00546 410.72297,4534.00546 Z M393.700508,4557.06971 C393.700508,4556.34326 394.274522,4555.75854 394.983324,4555.75854 C395.692067,4555.75854 396.26608,4556.34915 396.26608,4557.06971 C396.26608,4557.79599 395.692067,4558.38666 394.983324,4558.38666 C394.274522,4558.38095 393.700508,4557.79599 393.700508,4557.06971 Z M379.249278,4554.40584 L410.72297,4554.40584 L410.72297,4536.27339 L379.249278,4536.27339 L379.249278,4554.40584 Z" id="diannao"></path>
        </g>
    </g>
</svg>