<?xml version="1.0" encoding="UTF-8"?>
<svg width="17px" height="20px" viewBox="0 0 17 20" version="1.1" xmlns="http://www.w3.org/2000/svg" xmlns:xlink="http://www.w3.org/1999/xlink">
    <!-- Generator: Sketch 43.1 (39012) - http://www.bohemiancoding.com/sketch -->
    <title>Page 1</title>
    <desc>Created with Sketch.</desc>
    <defs></defs>
    <g id="v_1.3.0714" stroke="none" stroke-width="1" fill="none" fill-rule="evenodd">
        <g id="web端-下载" transform="translate(-532.000000, -579.000000)" fill="#FFFFFF">
            <g id="Page-1" transform="translate(532.000000, 579.000000)">
                <path d="M6.14748675,2.8373125 C6.4391494,2.8373125 6.67571566,3.07772917 6.67571566,3.37460417 C6.67571566,3.67127083 6.4391494,3.91189583 6.14748675,3.91189583 C5.8558241,3.91189583 5.61925783,3.67127083 5.61925783,3.37460417 C5.61925783,3.07772917 5.8558241,2.8373125 6.14748675,2.8373125 M10.7071735,2.8373125 C10.999041,2.8373125 11.2354024,3.07772917 11.2354024,3.37460417 C11.2354024,3.67127083 10.999041,3.91189583 10.7071735,3.91189583 C10.4155108,3.91189583 10.1789446,3.67127083 10.1789446,3.37460417 C10.1789446,3.07772917 10.4155108,2.8373125 10.7071735,2.8373125 M5.21473976,0.0854375 L6.22081205,1.5685625 C6.88094458,1.29397917 7.61133012,1.14127083 8.37940241,1.14127083 C9.18905301,1.14127083 9.95630602,1.31064583 10.6438843,1.61377083 L11.6966554,0.0614791667 C11.7404867,-0.00310416667 11.8277398,-0.0193541667 11.8912337,0.0250208333 L11.9166313,0.0429375 C11.9801253,0.0873125 11.9961012,0.176479167 11.9524747,0.240854167 L10.9289928,1.75002083 C12.4055349,2.50564583 13.4611735,3.89710417 13.6797157,5.53314583 L3.07908916,5.53314583 C3.30295663,3.85960417 4.40222169,2.4423125 5.93160723,1.69897917 L4.95892048,0.2648125 C4.91529398,0.2004375 4.9314747,0.111270833 4.99476386,0.0668958333 L5.02036627,0.0489791667 C5.08365542,0.00460416667 5.17111325,0.0206458333 5.21473976,0.0854375 Z M7.47170482,16.0296667 L7.47170482,18.5109167 C7.47170482,19.2650833 6.99775301,19.8825833 6.41790964,19.8825833 L6.18359639,19.8825833 C5.60395783,19.8825833 5.13000602,19.2650833 5.13000602,18.5109167 L5.13000602,16.0296667 L4.16059639,16.0296667 C3.5678494,16.0296667 3.08283735,15.5363333 3.08283735,14.9332083 L3.08283735,6.247375 L13.7606807,6.247375 L13.7606807,14.9332083 C13.7606807,15.5363333 13.2756687,16.0296667 12.6829217,16.0296667 L11.794006,16.0296667 L11.794006,18.5396667 C11.794006,19.29425 11.3196446,19.91175 10.7402108,19.91175 L10.5058976,19.91175 C9.92625904,19.91175 9.45210241,19.29425 9.45210241,18.5396667 L9.45210241,16.0296667 L7.47170482,16.0296667 Z M1.05389759,6.31489583 L1.28800602,6.31489583 C1.86764458,6.31489583 2.3418012,6.9321875 2.3418012,7.68677083 L2.3418012,12.0886458 C2.3418012,12.8436458 1.86764458,13.4609375 1.28800602,13.4609375 L1.05389759,13.4609375 C0.474054217,13.4609375 -0.000102409639,12.8436458 -0.000102409639,12.0886458 L-0.000102409639,7.68677083 C-0.000102409639,6.9321875 0.474054217,6.31489583 1.05389759,6.31489583 Z M15.5441651,6.34104167 L15.7784783,6.34104167 C16.357912,6.34104167 16.8320687,6.95833333 16.8320687,7.71291667 L16.8320687,12.115 C16.8320687,12.8695833 16.357912,13.4870833 15.7784783,13.4870833 L15.5441651,13.4870833 C14.9645265,13.4870833 14.4901651,12.8695833 14.4901651,12.115 L14.4901651,7.71291667 C14.4901651,6.95833333 14.9645265,6.34104167 15.5441651,6.34104167 Z" id="Combined-Shape"></path>
            </g>
        </g>
    </g>
</svg>