<?xml version="1.0" encoding="UTF-8"?>
<svg width="17px" height="20px" viewBox="0 0 17 20" version="1.1" xmlns="http://www.w3.org/2000/svg" xmlns:xlink="http://www.w3.org/1999/xlink">
    <!-- Generator: Sketch 43.1 (39012) - http://www.bohemiancoding.com/sketch -->
    <title>Group 2</title>
    <desc>Created with Sketch.</desc>
    <defs>
        <path d="M10.4688267,5.23413636 C11.0212133,5.02822727 11.64228,4.82686364 12.50724,4.82686364 C12.86628,4.82709091 13.2305333,4.87959091 13.5913867,4.98118182 C14.5762533,5.25777273 15.53324,5.89663636 16.2724,6.8205 C15.7995733,7.08027273 15.4051733,7.39913636 15.08648,7.75936364 C14.76756,8.11959091 14.52412,8.52095455 14.3532133,8.94436364 C14.1823067,9.368 14.0839333,9.81368182 14.0546933,10.263 C14.02568,10.7127727 14.0658,11.1661818 14.17256,11.6041364 C14.2788667,12.0425455 14.4522667,12.4659545 14.6884533,12.8557273 C14.9248667,13.2452727 15.22452,13.6018636 15.5846933,13.9057273 C15.94464,14.2095909 16.3651067,14.4616364 16.84292,14.6425455 C16.38256,15.6655 16.1617867,16.1218636 15.5688267,17.0255 C15.3847733,17.3066364 15.18372,17.603 14.9665733,17.8941364 C14.2117733,18.9066364 13.26136,19.8548182 12.1443467,19.8720909 L12.13188,19.8720909 C10.87592,19.8834545 10.5334267,19.0705 8.88737333,19.0439091 C8.85133333,19.0434545 8.81461333,19.0432273 8.77721333,19.0434545 C7.09534667,19.0523182 6.69822667,19.8295909 5.51706667,19.8718636 C4.2364,19.9182273 3.26286667,18.9066364 2.55249333,17.9561818 C2.36050667,17.6993636 2.18053333,17.4361818 2.01234667,17.1791364 C1.81741333,16.8818636 1.63721333,16.5802727 1.47174667,16.2759545 C1.13605333,15.6584545 0.859746667,15.0293636 0.640786667,14.4014091 C0.42024,13.7693636 0.258173333,13.138 0.152093333,12.5211818 C0.0446533333,11.898 -0.00498666667,11.2895909 0.000453333333,10.7089091 C0.00566666667,10.1193636 0.068,9.55868182 0.18496,9.0405 C0.30464,8.50981818 0.48144,8.02368182 0.71332,7.59731818 C0.952453333,7.15777273 1.26389333,6.75254545 1.61114667,6.39345455 C2.43258667,5.54504545 3.44873333,5.00959091 4.45876,4.86618182 C4.64054667,4.84027273 4.82233333,4.82709091 5.00276,4.82709091 C6.04610667,4.82731818 6.82493333,5.21822727 7.61622667,5.46709091 C7.98592,5.58368182 8.35833333,5.66913636 8.76157333,5.66913636 C9.38921333,5.66936364 9.89150667,5.44913636 10.4688267,5.23413636 Z M11.1652827,3.41675 C10.4764427,4.30311364 9.29006933,4.98970455 8.143136,4.95402273 C7.93414933,3.81106818 8.47202933,2.63538636 9.123016,1.84265909 C9.84086933,0.969477273 11.0694027,0.299704545 12.119776,0.227204545 C12.2968027,1.42152273 11.8081093,2.58970455 11.1652827,3.41675 Z" id="path-1"></path>
    </defs>
    <g id="v_1.3.0714" stroke="none" stroke-width="1" fill="none" fill-rule="evenodd">
        <g id="web端-下载" transform="translate(-537.000000, -507.000000)">
            <g id="Group-2" transform="translate(537.000000, 507.000000)">
                <mask id="mask-2" fill="white">
                    <use xlink:href="#path-1"></use>
                </mask>
                <use id="Combined-Shape" fill="#FFFFFF" xlink:href="#path-1"></use>
            </g>
        </g>
    </g>
</svg>