<?xml version="1.0" encoding="UTF-8"?>
<svg width="92px" height="30px" viewBox="0 0 92 30" version="1.1" xmlns="http://www.w3.org/2000/svg" xmlns:xlink="http://www.w3.org/1999/xlink">
    <!-- Generator: Sketch 47.1 (45422) - http://www.bohemiancoding.com/sketch -->
    <title>logo_zhenyiqian</title>
    <desc>Created with Sketch.</desc>
    <defs></defs>
    <g id="下载" stroke="none" stroke-width="1" fill="none" fill-rule="evenodd">
        <g id="正文" transform="translate(-62.000000, -30.000000)" fill-rule="nonzero" fill="#D61400">
            <path d="M109.959641,41.9618592 L109.959641,44.3132987 C109.959641,44.7172027 110.282439,45.0441108 110.681122,45.0441108 L112.92598,45.0441108 L109.959641,41.9618592 Z M113.878924,46.0615661 L113.878924,46.0888407 L110.681122,46.0888407 C109.713038,46.0888407 108.928251,45.2944137 108.928251,44.3132987 L108.928251,41.0741371 L109.016777,41.0741371 L101.70852,41.0741371 L101.70852,56.7450859 L113.878924,56.7450859 L113.878924,46.0615661 Z M114.910314,56.7450859 L120.789238,56.7450859 L120.789238,31.0447299 L63.0313901,31.0447299 L63.0313901,56.7450859 L68.2914798,56.7450859 L68.2914798,38.566833 C68.2914798,38.2206136 68.5684887,37.9399474 68.9105834,37.9399474 L80.2487563,37.9399474 L85.6188341,43.5198662 L85.6188341,56.7450859 L100.67713,56.7450859 L100.67713,40.6562928 C100.67713,40.3100735 100.954139,40.0294072 101.296234,40.0294072 L109.540236,40.0294072 L114.910314,45.609326 L114.910314,56.7450859 Z M80.6681614,39.8723994 L80.6681614,42.8506768 C80.6681614,43.2545808 80.9909595,43.5814889 81.3896421,43.5814889 L84.2377652,43.5814889 L80.6681614,39.8723994 Z M84.5874439,44.2855253 L84.5874439,44.6262189 L84.5874439,44.6262189 L81.3896421,44.6262189 C80.4215583,44.6262189 79.6367713,43.8317919 79.6367713,42.8506768 L79.6367713,38.9846773 L69.32287,38.9846773 L69.32287,56.7450859 L84.5874439,56.7450859 L84.5874439,44.2855253 Z M118.107623,35.3281226 L97.1704036,35.3281226 L97.1704036,37.9498948 C97.1704036,38.2328952 96.9311896,38.4623123 96.6547085,38.4623123 C96.369898,38.4623123 96.1390135,38.2376355 96.1390135,37.9498948 L96.1390135,34.7958102 C96.1390135,34.5128098 96.3782275,34.2833927 96.6547085,34.2833927 C96.6729533,34.2833927 96.6909768,34.2843146 96.7087325,34.2861161 C96.7266624,34.2843153 96.7449,34.2833927 96.7634059,34.2833927 L107.174888,34.2833927 L107.174888,31.6616205 C107.174888,31.3786201 107.414102,31.1492029 107.690583,31.1492029 C107.975393,31.1492029 108.206278,31.3738798 108.206278,31.6616205 L108.206278,34.2833927 L118.61776,34.2833927 C118.618688,34.2833927 118.619614,34.2833952 118.620541,34.2834002 C118.621464,34.2833952 118.622391,34.2833927 118.623318,34.2833927 C118.908129,34.2833927 119.139013,34.5080695 119.139013,34.7958102 L119.139013,37.9498948 C119.139013,38.2328952 118.899799,38.4623123 118.623318,38.4623123 C118.338508,38.4623123 118.107623,38.2376355 118.107623,37.9498948 L118.107623,35.3281226 Z M75.0495917,34.1789197 L76.4730052,31.6785501 C76.6145249,31.4299565 76.9364146,31.3480386 77.1758543,31.4862791 C77.4225074,31.6286844 77.5101054,31.9414876 77.3662153,32.1942451 L75.7889561,34.9648601 C75.6894059,35.1397301 75.5006042,35.232125 75.3140329,35.2234285 C75.3088093,35.2235756 75.3035627,35.2236496 75.2982939,35.2236496 L65.5133653,35.2236496 C65.2248883,35.2236496 64.9910314,34.9813416 64.9910314,34.7012846 C64.9910314,34.4127904 65.2172229,34.1789197 65.5133653,34.1789197 L75.0495917,34.1789197 Z M139.174502,39.9230617 C139.282624,39.8837007 139.378216,39.8087283 139.439639,39.702341 L141.965095,35.3281226 L145.059843,35.3281226 L146.172333,39.4799911 C146.245785,39.7541186 146.531332,39.9161872 146.809996,39.8415194 C147.08051,39.7690353 147.254972,39.4839294 147.181464,39.2095951 L146.141427,35.3281226 L150.064908,35.3281226 C150.364406,35.3281226 150.596413,35.0942518 150.596413,34.8057576 C150.596413,34.5257006 150.35845,34.2833927 150.064908,34.2833927 L142.56827,34.2833927 L143.943194,31.9019543 C144.084607,31.6570198 143.998816,31.3438447 143.752163,31.2014394 C143.512723,31.0631989 143.191134,31.1417808 143.049984,31.3862592 L138.546429,39.1866459 C138.515533,39.2401582 138.495483,39.2969277 138.485585,39.3544619 L137.926647,38.8931407 C137.736976,38.7365949 137.464817,38.7365949 137.275146,38.8931407 L123.351379,50.3851698 C123.130584,50.5674038 123.097438,50.8964384 123.277345,51.1200892 C123.457252,51.34374 123.782086,51.3773149 124.002881,51.195081 L137.600897,39.9719113 L146.09426,46.9819381 C142.766095,49.6024382 140.365425,52.3593374 140.365425,52.3593374 L137.00273,49.7846507 L135.538355,51.0060161 L135.538117,51.0060506 L141.356898,56.6788145 C142.965354,53.0440638 145.450589,49.9126475 147.245071,47.9317641 L151.198913,51.195081 C151.419708,51.3773149 151.744541,51.34374 151.924449,51.1200892 C152.104356,50.8964384 152.071209,50.5674038 151.850414,50.3851698 L147.953892,47.1691617 C148.859126,46.2202936 149.461883,45.6838698 149.461883,45.6838698 L148.900429,44.9860848 C148.226881,45.4114138 147.571017,45.8663555 146.941613,46.3336739 L139.174502,39.9230617 Z M129.366476,34.2833927 L130.7414,31.9019543 C130.882813,31.6570198 130.797023,31.3438447 130.550369,31.2014394 C130.31093,31.0631989 129.98934,31.1417808 129.84819,31.3862592 L125.344635,39.1866459 C125.203222,39.4315804 125.289013,39.7447556 125.535666,39.8871608 C125.775105,40.0254014 126.096695,39.9468194 126.237845,39.702341 L128.763301,35.3281226 L131.961188,35.3281226 L133.073678,39.4799911 C133.14713,39.7541186 133.432677,39.9161872 133.711341,39.8415194 C133.981855,39.7690353 134.156317,39.4839294 134.082809,39.2095951 L133.042772,35.3281226 L136.966253,35.3281226 C137.265752,35.3281226 137.497758,35.0942518 137.497758,34.8057576 C137.497758,34.5257006 137.259795,34.2833927 136.966253,34.2833927 L129.366476,34.2833927 Z M137.343049,30 L154,30 L154,57.7898158 L137.343049,57.7898158 L62,57.7898158 L62,30 L137.343049,30 Z M132.598655,47.2380436 L142.525353,47.2380436 C142.810163,47.2380436 143.041048,47.0041729 143.041048,46.7156787 C143.041048,46.4271845 142.810163,46.1933137 142.525353,46.1933137 L132.598655,46.1933137 C132.313844,46.1933137 132.08296,46.4271845 132.08296,46.7156787 C132.08296,47.0041729 132.313844,47.2380436 132.598655,47.2380436 Z M130.609659,51.8897339 L135.197376,56.4774518 C135.397949,56.6780245 135.726226,56.679781 135.927617,56.4783896 C136.123119,56.2828879 136.128589,55.9500582 135.926679,55.7481488 L131.338962,51.160431 C131.138389,50.9598582 130.810112,50.9581017 130.608721,51.1594932 C130.413219,51.3549948 130.407749,51.6878246 130.609659,51.8897339 Z M77.367713,34.7012846 C77.367713,34.4127904 77.608984,34.1789197 77.8940769,34.1789197 L88.3929186,34.1789197 C88.6836214,34.1789197 88.9192825,34.4212276 88.9192825,34.7012846 C88.9192825,34.9897788 88.6780116,35.2236496 88.3929186,35.2236496 L77.8940769,35.2236496 C77.6033741,35.2236496 77.367713,34.9813416 77.367713,34.7012846 Z M129.298206,59.6703297 C129.013396,59.6703297 128.782511,59.4364589 128.782511,59.1479647 C128.782511,58.8594705 129.013396,58.6255998 129.298206,58.6255998 L146.444635,58.6255998 C146.729446,58.6255998 146.96033,58.8594705 146.96033,59.1479647 C146.96033,59.4364589 146.729446,59.6703297 146.444635,59.6703297 L129.298206,59.6703297 Z M80.6165919,59.6703297 C80.3317814,59.6703297 80.1008969,59.4364589 80.1008969,59.1479647 C80.1008969,58.8594705 80.3317814,58.6255998 80.6165919,58.6255998 L89.5118999,58.6255998 C89.7967104,58.6255998 90.027595,58.8594705 90.027595,59.1479647 C90.027595,59.4364589 89.7967104,59.6703297 89.5118999,59.6703297 L80.6165919,59.6703297 Z M65.455157,59.6703297 C65.1703464,59.6703297 64.9394619,59.4364589 64.9394619,59.1479647 C64.9394619,58.8594705 65.1703464,58.6255998 65.455157,58.6255998 L74.0410479,58.6255998 C74.3258584,58.6255998 74.556743,58.8594705 74.556743,59.1479647 C74.556743,59.4364589 74.3258584,59.6703297 74.0410479,59.6703297 L65.455157,59.6703297 Z M70.8699552,44.1038539 C70.8699552,43.8153597 71.1037618,43.5814889 71.3887262,43.5814889 L75.1987178,43.5814889 C75.4852271,43.5814889 75.7174888,43.8237969 75.7174888,44.1038539 C75.7174888,44.3923481 75.4836822,44.6262189 75.1987178,44.6262189 L71.3887262,44.6262189 C71.1022169,44.6262189 70.8699552,44.3839109 70.8699552,44.1038539 Z M70.8699552,52.6706392 C70.8699552,52.382145 71.1061441,52.1482743 71.4017657,52.1482743 L82.7148262,52.1482743 C83.0085371,52.1482743 83.2466368,52.3905822 83.2466368,52.6706392 C83.2466368,52.9591334 83.0104478,53.1930042 82.7148262,53.1930042 L71.4017657,53.1930042 C71.1080548,53.1930042 70.8699552,52.9506962 70.8699552,52.6706392 Z M70.8699552,48.3872466 C70.8699552,48.0987524 71.1061441,47.8648816 71.4017657,47.8648816 L82.7148262,47.8648816 C83.0085371,47.8648816 83.2466368,48.1071896 83.2466368,48.3872466 C83.2466368,48.6757408 83.0104478,48.9096115 82.7148262,48.9096115 L71.4017657,48.9096115 C71.1080548,48.9096115 70.8699552,48.6673036 70.8699552,48.3872466 Z M103.255605,47.6559356 C103.255605,47.3674414 103.489412,47.1335707 103.774376,47.1335707 L107.584368,47.1335707 C107.870877,47.1335707 108.103139,47.3758786 108.103139,47.6559356 C108.103139,47.9444298 107.869332,48.1783006 107.584368,48.1783006 L103.774376,48.1783006 C103.487867,48.1783006 103.255605,47.9359926 103.255605,47.6559356 Z M103.255605,52.6706392 C103.255605,52.382145 103.495614,52.1482743 103.776822,52.1482743 L111.707483,52.1482743 C111.995343,52.1482743 112.2287,52.3905822 112.2287,52.6706392 C112.2287,52.9591334 111.988691,53.1930042 111.707483,53.1930042 L103.776822,53.1930042 C103.488962,53.1930042 103.255605,52.9506962 103.255605,52.6706392 Z" id="logo_zhenyiqian"></path>
        </g>
    </g>
</svg>