<?xml version="1.0" encoding="UTF-8"?>
<svg width="252px" height="23px" viewBox="0 0 252 23" version="1.1" xmlns="http://www.w3.org/2000/svg" xmlns:xlink="http://www.w3.org/1999/xlink">
    <!-- Generator: Sketch 47.1 (45422) - http://www.bohemiancoding.com/sketch -->
    <title>Combined Shape</title>
    <desc>Created with Sketch.</desc>
    <defs></defs>
    <g id="下载" stroke="none" stroke-width="1" fill="none" fill-rule="evenodd">
        <g id="正文" transform="translate(-175.000000, -33.000000)" fill="#FFFFFF">
            <path d="M209.712,33.728 L210.288,33.728 C213.36,36.992 216.864,39.584 220.848,41.456 L220.44,42.152 C216.36,40.184 212.88,37.616 210,34.496 C207.336,37.52 203.832,40.16 199.464,42.368 L199.08,41.648 C203.328,39.536 206.88,36.896 209.712,33.728 Z M203.328,41.48 L216.72,41.48 L216.72,42.272 L210.408,42.272 L210.408,47.36 L217.704,47.36 L217.704,48.152 L210.408,48.152 L210.408,53.648 L219.888,53.648 L219.888,54.464 L200.136,54.464 L200.136,53.648 L209.592,53.648 L209.592,48.152 L202.272,48.152 L202.272,47.36 L209.592,47.36 L209.592,42.272 L203.328,42.272 L203.328,41.48 Z M253.84,33.848 L254.248,34.592 C252.088,35.6 249.64,36.176 246.904,36.32 L246.904,41.432 L255.256,41.432 L255.256,42.224 L252.4,42.224 L252.4,55.424 L251.608,55.424 L251.608,42.224 L246.904,42.224 L246.904,45.752 C246.784,49.736 245.896,52.904 244.24,55.28 L243.64,54.656 C245.152,52.52 245.968,49.544 246.088,45.752 L246.088,35.648 C248.92,35.576 251.512,34.976 253.84,33.848 Z M233.872,35.864 L238.936,35.864 C238.552,34.904 238.12,34.064 237.64,33.32 L238.504,33.176 C238.936,33.944 239.368,34.856 239.752,35.864 L244.48,35.864 L244.48,36.68 L233.872,36.68 L233.872,35.864 Z M233.656,41.312 L236.752,41.312 C236.368,40.16 235.84,39.08 235.168,38.072 L235.936,37.808 C236.536,38.768 237.064,39.944 237.544,41.312 L240.664,41.312 C241.336,40.16 241.888,38.96 242.368,37.688 L243.136,37.952 C242.632,39.2 242.056,40.328 241.432,41.312 L244.648,41.312 L244.648,42.104 L239.68,42.104 L239.68,45.632 L244.216,45.632 L244.216,46.4 L239.68,46.4 L239.68,53.768 C239.68,54.848 239.128,55.4 238.048,55.4 L236.704,55.4 L236.536,54.608 C236.968,54.632 237.4,54.656 237.784,54.656 C238.504,54.656 238.864,54.296 238.864,53.6 L238.864,46.4 L233.992,46.4 L233.992,45.632 L238.864,45.632 L238.864,42.104 L233.656,42.104 L233.656,41.312 Z M236.104,48.104 L236.896,48.272 C236.2,50.696 235.216,52.808 233.944,54.608 L233.248,54.152 C234.52,52.424 235.48,50.408 236.104,48.104 Z M241.96,47.912 C242.848,49.544 243.52,51.032 244,52.376 L243.304,52.64 C242.728,51.104 242.056,49.592 241.24,48.104 L241.96,47.912 Z M275.936,37.952 L275.936,53.816 L275.12,53.816 L275.12,52.232 L269.792,52.232 L269.792,54.488 L268.976,54.488 L268.976,37.952 L271.088,37.952 C271.616,36.56 272,35.072 272.24,33.512 L273.056,33.632 C272.792,35.192 272.408,36.632 271.88,37.952 L275.936,37.952 Z M269.792,51.464 L275.12,51.464 L275.12,45.344 L269.792,45.344 L269.792,51.464 Z M269.792,44.576 L275.12,44.576 L275.12,38.768 L269.792,38.768 L269.792,44.576 Z M279.896,43.208 C281.816,45.248 283.304,47.024 284.312,48.56 L283.664,49.04 C282.608,47.408 281.12,45.608 279.248,43.64 L279.896,43.208 Z M288.392,38 C288.392,45.488 288.272,50.12 288.056,51.896 C287.84,53.912 286.76,54.944 284.792,54.944 C284.36,54.944 283.592,54.92 282.536,54.92 L282.32,54.152 C283.256,54.152 284.072,54.176 284.744,54.176 C286.208,54.176 287.048,53.36 287.264,51.776 C287.456,50.192 287.552,45.872 287.6,38.816 L280.016,38.816 C279.344,40.424 278.528,41.864 277.568,43.16 L277.088,42.512 C278.888,40.064 280.112,37.04 280.76,33.488 L281.552,33.584 C281.264,35.168 280.856,36.632 280.352,38 L288.392,38 Z M312.552,36.416 L312.552,52.568 L302.256,52.568 L302.256,53.36 L323.64,53.36 L323.64,52.568 L313.368,52.568 L313.368,36.416 L321.984,36.416 L321.984,35.624 L303.96,35.624 L303.96,36.416 L312.552,36.416 Z M346.456,38.024 C345.352,40.376 344.008,42.464 342.472,44.288 L341.896,43.64 C344.272,40.832 346.096,37.424 347.344,33.44 L348.136,33.632 C347.752,34.904 347.296,36.104 346.816,37.232 L357.976,37.232 L357.976,38.024 L349.288,38.024 L349.288,42.872 L356.776,42.872 L356.776,43.688 L349.288,43.688 L349.288,48.608 L357.064,48.608 L357.064,49.4 L349.288,49.4 L349.288,55.28 L348.472,55.28 L348.472,38.024 L346.456,38.024 Z M339.664,40.568 C338.728,41.912 337.696,43.184 336.544,44.336 L336.28,43.496 C339.064,40.52 341.056,37.184 342.256,33.536 L343,33.896 C342.328,35.84 341.488,37.64 340.48,39.296 L340.48,55.28 L339.664,55.28 L339.664,40.568 Z M371.408,37.328 L371.408,38.144 L378.32,38.144 C378.296,38.936 378.248,40.304 378.152,42.248 C378.008,44.576 377.528,46.688 376.712,48.584 C375.8,50.504 374.072,52.544 371.528,54.704 L372.128,55.256 C374.192,53.576 375.824,51.752 377.024,49.76 C377.912,48.08 378.488,46.184 378.752,44.096 L388.064,44.096 C388.064,47.456 387.992,49.784 387.848,51.08 C387.56,53.168 386.624,54.248 385.064,54.32 C384.272,54.32 383.288,54.296 382.112,54.272 L382.376,55.016 C383.456,55.064 384.392,55.088 385.16,55.088 C387.056,54.992 388.184,53.792 388.568,51.536 C388.76,50.144 388.88,47.384 388.904,43.304 L378.848,43.304 L378.896,42.848 C379.016,40.712 379.088,39.152 379.136,38.144 L392.024,38.144 L392.024,37.328 L382.928,37.328 C382.304,35.792 381.632,34.52 380.912,33.464 L380.12,33.752 C380.912,34.856 381.56,36.056 382.064,37.328 L371.408,37.328 Z M405.504,38.12 L417.648,38.12 C417.552,36.656 417.528,35.144 417.528,33.56 L418.392,33.56 C418.392,35.168 418.416,36.68 418.512,38.12 L426.24,38.12 L426.24,38.936 L418.56,38.936 C418.848,43.568 419.568,47.36 420.72,50.312 C421.752,52.928 422.76,54.248 423.744,54.296 C424.416,54.152 425.064,52.64 425.664,49.76 L426.408,50.144 C425.688,53.456 424.8,55.112 423.792,55.16 C421.968,55.112 420.312,52.496 418.872,47.336 C418.296,44.936 417.888,42.128 417.696,38.936 L405.504,38.936 L405.504,38.12 Z M405.912,43.712 L415.848,43.712 L415.848,44.528 L411.288,44.528 L411.288,51.872 C413.208,51.536 415.032,51.128 416.808,50.672 L416.808,51.488 C413.4,52.328 409.728,53.024 405.744,53.552 L405.528,52.76 C407.208,52.544 408.864,52.304 410.472,52.016 L410.472,44.528 L405.912,44.528 L405.912,43.712 Z M421.944,33.776 C422.832,34.76 423.648,35.816 424.416,36.968 L423.696,37.328 C422.928,36.128 422.112,35.048 421.248,34.112 L421.944,33.776 Z M177.5,48 C176.119288,48 175,46.8807119 175,45.5 C175,44.1192881 176.119288,43 177.5,43 C178.880712,43 180,44.1192881 180,45.5 C180,46.8807119 178.880712,48 177.5,48 Z" id="Combined-Shape"></path>
        </g>
    </g>
</svg>