<?xml version="1.0" encoding="UTF-8"?>
<svg width="78px" height="14px" viewBox="0 0 78 14" version="1.1" xmlns="http://www.w3.org/2000/svg" xmlns:xlink="http://www.w3.org/1999/xlink">
    <!-- Generator: Sketch 43.1 (39012) - http://www.bohemiancoding.com/sketch -->
    <title>iPhone 下载</title>
    <desc>Created with Sketch.</desc>
    <defs></defs>
    <g id="v_1.3.0714" stroke="none" stroke-width="1" fill="none" fill-rule="evenodd">
        <g id="web端-下载" transform="translate(-565.000000, -512.000000)" fill="#FFFFFF">
            <path d="M565.507812,513.773438 C565.507812,513.536457 565.588704,513.337078 565.750488,513.175293 C565.912273,513.013508 566.111652,512.932617 566.348633,512.932617 C566.59017,512.932617 566.794107,513.012369 566.960449,513.171875 C567.126791,513.331381 567.209961,513.5319 567.209961,513.773438 C567.209961,514.010418 567.126791,514.207519 566.960449,514.364746 C566.794107,514.521973 566.59017,514.600586 566.348633,514.600586 C566.107095,514.600586 565.906576,514.521973 565.74707,514.364746 C565.587564,514.207519 565.507812,514.010418 565.507812,513.773438 Z M565.665039,524 L565.665039,516.439453 L567.004883,516.439453 L567.004883,524 L565.665039,524 Z M570.935547,520.041992 L570.935547,524 L569.568359,524 L569.568359,513.411133 L572.576172,513.411133 C573.720058,513.411133 574.607581,513.686846 575.23877,514.238281 C575.869958,514.789716 576.185547,515.57812 576.185547,516.603516 C576.185547,517.642583 575.81641,518.484535 575.078125,519.129395 C574.33984,519.774255 573.416998,520.078451 572.30957,520.041992 L570.935547,520.041992 Z M570.935547,514.614258 L570.935547,518.838867 L572.200195,518.838867 C573.034184,518.838867 573.667641,518.650881 574.100586,518.274902 C574.533531,517.898924 574.75,517.36003 574.75,516.658203 C574.75,515.295566 573.943367,514.614258 572.330078,514.614258 L570.935547,514.614258 Z M584.347656,524 L583.014648,524 L583.014648,519.652344 C583.014648,518.130201 582.44955,517.369141 581.319336,517.369141 C580.740557,517.369141 580.259768,517.591306 579.876953,518.035645 C579.494139,518.479983 579.302734,519.039385 579.302734,519.713867 L579.302734,524 L577.962891,524 L577.962891,512.80957 L579.302734,512.80957 L579.302734,517.683594 L579.330078,517.683594 C579.908857,516.735672 580.73144,516.261719 581.797852,516.261719 C583.49773,516.261719 584.347656,517.289378 584.347656,519.344727 L584.347656,524 Z M586.077148,520.301758 C586.077148,519.053054 586.425778,518.067549 587.123047,517.345215 C587.820316,516.622881 588.765945,516.261719 589.959961,516.261719 C591.094732,516.261719 591.984535,516.609209 592.629395,517.304199 C593.274255,517.99919 593.59668,518.959629 593.59668,520.185547 C593.59668,521.379563 593.252608,522.343421 592.564453,523.077148 C591.876299,523.810876 590.953456,524.177734 589.795898,524.177734 C588.665684,524.177734 587.76335,523.822269 587.088867,523.111328 C586.414385,522.400387 586.077148,521.463873 586.077148,520.301758 Z M587.444336,520.260742 C587.444336,521.131189 587.664223,521.817055 588.104004,522.318359 C588.543785,522.819664 589.135087,523.070312 589.87793,523.070312 C590.643559,523.070312 591.226886,522.825361 591.62793,522.335449 C592.028973,521.845538 592.229492,521.142583 592.229492,520.226562 C592.229492,519.305985 592.028973,518.599612 591.62793,518.107422 C591.226886,517.615232 590.643559,517.369141 589.87793,517.369141 C589.125973,517.369141 588.532391,517.626625 588.097168,518.141602 C587.661944,518.656578 587.444336,519.362951 587.444336,520.260742 Z M601.875,524 L600.541992,524 L600.541992,519.700195 C600.541992,518.146151 599.974615,517.369141 598.839844,517.369141 C598.25195,517.369141 597.768882,517.587888 597.390625,518.025391 C597.012368,518.462893 596.823242,519.016598 596.823242,519.686523 L596.823242,524 L595.483398,524 L595.483398,516.439453 L596.823242,516.439453 L596.823242,517.69043 L596.850586,517.69043 C597.42025,516.737951 598.24739,516.261719 599.332031,516.261719 C600.161462,516.261719 600.792641,516.527178 601.225586,517.058105 C601.658531,517.589033 601.875,518.362625 601.875,519.378906 L601.875,524 Z M610.269531,520.561523 L604.978516,520.561523 C605.001302,521.368168 605.222329,521.991371 605.641602,522.431152 C606.060874,522.870933 606.646481,523.09082 607.398438,523.09082 C608.246098,523.09082 609.023108,522.819664 609.729492,522.277344 L609.729492,523.473633 C609.064124,523.943036 608.182297,524.177734 607.083984,524.177734 C605.990229,524.177734 605.136885,523.831384 604.523926,523.138672 C603.910967,522.44596 603.604492,521.484381 603.604492,520.253906 C603.604492,519.096348 603.940589,518.141605 604.612793,517.389648 C605.284997,516.637692 606.120112,516.261719 607.118164,516.261719 C608.107101,516.261719 608.879555,516.579587 609.435547,517.215332 C609.991539,517.851077 610.269531,518.74088 610.269531,519.884766 L610.269531,520.561523 Z M608.929688,519.488281 C608.92513,518.804684 608.763348,518.276044 608.444336,517.902344 C608.125324,517.528644 607.676435,517.341797 607.097656,517.341797 C606.56445,517.341797 606.103029,517.540037 605.713379,517.936523 C605.323729,518.33301 605.078777,518.850257 604.978516,519.488281 L608.929688,519.488281 Z M615.355469,513.493164 L628.644531,513.493164 L628.644531,514.614258 L622,514.614258 L622,517.594727 L622.628906,516.719727 C624.716156,517.950201 626.466139,519.057612 627.878906,520.041992 L627.072266,521.149414 C625.659498,520.064773 623.96876,518.920904 622,517.717773 L622,525.743164 L620.755859,525.743164 L620.755859,514.614258 L615.355469,514.614258 L615.355469,513.493164 Z M635.302734,524.90918 C636.382818,524.170895 637.353511,523.279953 638.214844,522.236328 C637.749998,520.832675 637.453777,519.062185 637.326172,516.924805 L629.273438,516.924805 L629.273438,516.008789 L632.677734,516.008789 L632.677734,514.737305 L629.833984,514.737305 L629.833984,513.875977 L632.677734,513.875977 L632.677734,512.481445 L633.689453,512.481445 L633.689453,513.875977 L636.382812,513.875977 L636.382812,514.737305 L633.689453,514.737305 L633.689453,516.008789 L637.271484,516.008789 C637.216797,514.924148 637.166667,513.725592 637.121094,512.413086 L638.173828,512.413086 C638.178385,513.693691 638.212565,514.892247 638.276367,516.008789 L642.822266,516.008789 L642.822266,516.924805 L638.331055,516.924805 C638.426758,518.606454 638.643227,520.039708 638.980469,521.224609 C639.668623,520.244787 640.274737,519.153326 640.798828,517.950195 L641.742188,518.387695 C641.040361,519.896166 640.251958,521.229161 639.376953,522.386719 C639.659507,523.056644 639.992186,523.619464 640.375,524.075195 C640.61198,524.348634 640.830728,524.485352 641.03125,524.485352 C641.277345,524.485352 641.441406,524.303062 641.523438,523.938477 C641.632813,523.446287 641.73763,522.826501 641.837891,522.079102 C642.202476,522.243165 642.530597,522.366211 642.822266,522.448242 C642.703775,523.222986 642.571615,523.91113 642.425781,524.512695 C642.197916,525.323897 641.792321,525.729492 641.208984,525.729492 C640.543616,525.729492 639.910159,525.305668 639.308594,524.458008 C639.062499,524.120767 638.839194,523.735679 638.638672,523.302734 C637.854814,524.200525 637.011723,524.972979 636.109375,525.620117 C635.835936,525.31022 635.567059,525.073243 635.302734,524.90918 Z M631.201172,520.780273 L633.074219,520.780273 L633.074219,519.522461 L634.044922,519.522461 L634.044922,520.780273 L636.628906,520.780273 L636.628906,521.641602 L634.044922,521.641602 L634.044922,522.913086 C634.87891,522.844726 635.758459,522.77181 636.683594,522.694336 C636.65625,522.986004 636.642578,523.282225 636.642578,523.583008 C635.822262,523.637696 634.956385,523.703776 634.044922,523.78125 L634.044922,525.78418 L633.074219,525.78418 L633.074219,523.870117 C632.00325,523.961263 630.873053,524.070637 629.683594,524.198242 L629.464844,523.213867 C630.549485,523.154622 631.752598,523.077149 633.074219,522.981445 L633.074219,521.641602 L630.066406,521.641602 L630.066406,520.75293 C630.435549,520.274412 630.79785,519.741214 631.15332,519.15332 L629.601562,519.15332 L629.601562,518.291992 L631.652344,518.291992 C631.875652,517.886391 632.0944,517.45801 632.308594,517.006836 L633.320312,517.321289 C633.133463,517.663088 632.951173,517.986652 632.773438,518.291992 L636.738281,518.291992 L636.738281,519.15332 L632.260742,519.15332 C631.882485,519.773115 631.529299,520.315427 631.201172,520.780273 Z M639.089844,513.411133 L639.759766,512.741211 C640.680343,513.433923 641.427732,514.049151 642.001953,514.586914 L641.222656,515.379883 C640.602861,514.714515 639.891931,514.058271 639.089844,513.411133 Z" id="iPhone-下载"></path>
        </g>
    </g>
</svg>