<?xml version="1.0" encoding="UTF-8"?>
<svg width="59px" height="38px" viewBox="0 0 59 38" version="1.1" xmlns="http://www.w3.org/2000/svg" xmlns:xlink="http://www.w3.org/1999/xlink">
    <!-- Generator: Sketch 47.1 (45422) - http://www.bohemiancoding.com/sketch -->
    <title>qianbgshouyelianjie</title>
    <desc>Created with Sketch.</desc>
    <defs></defs>
    <g id="下载" stroke="none" stroke-width="1" fill="none" fill-rule="evenodd">
        <g id="正文" transform="translate(-1835.000000, -28.000000)" fill="#D2D2D2">
            <path d="M1891.06575,39.9320006 C1891.06586,39.9130133 1891.06592,39.894013 1891.06592,39.875 C1891.06592,34.5284934 1886.78062,30.1942935 1881.49443,30.1942935 C1876.20825,30.1942935 1871.92295,34.5284934 1871.92295,39.875 C1871.92295,45.2215066 1876.20825,49.5557065 1881.49443,49.5557065 C1885.60439,49.5557065 1889.10932,46.9357245 1890.46559,43.2570006 L1888.53071,43.2570006 C1887.2544,45.9434784 1884.53874,47.7980278 1881.39481,47.7980278 C1877.07004,47.7980278 1873.55566,44.2887262 1873.48352,39.9320006 L1888.18602,39.9320006 L1891.06575,39.9320006 Z M1883.76594,37.5639234 C1883.76553,37.5448513 1883.76533,37.5257282 1883.76533,37.5065562 C1883.76533,36.0808212 1884.90807,34.9250345 1886.31772,34.9250345 C1887.72737,34.9250345 1888.87012,36.0808212 1888.87012,37.5065562 C1888.87012,37.5257282 1888.86991,37.5448513 1888.8695,37.5639234 L1883.76594,37.5639234 Z M1874.19521,37.5639234 C1874.1948,37.5448513 1874.19459,37.5257282 1874.19459,37.5065562 C1874.19459,36.0808212 1875.33734,34.9250345 1876.74698,34.9250345 C1878.15663,34.9250345 1879.29938,36.0808212 1879.29938,37.5065562 C1879.29938,37.5257282 1879.29917,37.5448513 1879.29876,37.5639234 L1874.19521,37.5639234 Z M1870.03128,37.2950698 C1871.19608,31.977177 1875.88604,28 1881.49443,28 C1887.97882,28 1893.23545,33.3166186 1893.23545,39.875 C1893.23545,46.4333814 1887.97882,51.75 1881.49443,51.75 C1877.97099,51.75 1874.81004,50.1802392 1872.65796,47.6944637 C1872.29568,57.8661702 1864.00705,66 1853.83516,66 C1843.43279,66 1835,57.4934102 1835,47 C1835,36.5065898 1843.43279,28 1853.83516,28 C1860.72263,28 1866.74667,31.7291605 1870.03128,37.2950698 Z M1853.83516,63.5949367 C1862.92077,63.5949367 1870.28611,56.1651305 1870.28611,47 C1870.28611,37.8348695 1862.92077,30.4050633 1853.83516,30.4050633 C1844.74954,30.4050633 1837.3842,37.8348695 1837.3842,47 C1837.3842,56.1651305 1844.74954,63.5949367 1853.83516,63.5949367 Z M1853.89678,62.3443038 C1845.53538,62.3443038 1838.75713,55.5067285 1838.75713,47.0721519 C1838.75713,38.6375753 1845.53538,31.8 1853.89678,31.8 C1862.25817,31.8 1869.03643,38.6375753 1869.03643,47.0721519 C1869.03643,55.5067285 1862.25817,62.3443038 1853.89678,62.3443038 Z M1853.89678,61.6227848 C1861.86315,61.6227848 1868.32117,55.1082446 1868.32117,47.0721519 C1868.32117,39.0360592 1861.86315,32.521519 1853.89678,32.521519 C1845.9304,32.521519 1839.47239,39.0360592 1839.47239,47.0721519 C1839.47239,55.1082446 1845.9304,61.6227848 1853.89678,61.6227848 Z M1858.68611,49.2269626 L1860.72988,49.7752741 C1860.20806,51.4421412 1859.57754,52.955481 1858.83831,54.2933611 L1863.14326,54.2933611 L1863.14326,56.2234177 L1844.66241,56.2234177 L1844.66241,54.2933611 L1856.6206,54.2933611 C1857.40332,52.8677512 1858.07733,51.1789516 1858.68611,49.2269626 Z M1848.81516,49.4243547 C1849.42394,50.5867752 1849.9675,51.9246553 1850.46757,53.4379951 L1848.59774,53.9205093 C1848.1629,52.5606967 1847.61934,51.2666815 1846.92359,50.0384637 L1848.81516,49.4243547 Z M1853.83761,48.9857055 C1854.33768,50.2139233 1854.77252,51.6395333 1855.16388,53.240603 L1853.31579,53.7011847 C1852.94618,52.2755747 1852.48959,50.9157621 1851.92429,49.5998144 L1853.83761,48.9857055 Z M1847.61934,40.1907886 C1847.07579,41.2435467 1846.46701,42.2305075 1845.793,43.1078059 L1844.01014,41.9673179 C1845.35816,40.2785184 1846.29307,38.4800566 1846.85837,36.55 L1848.85865,36.9886492 C1848.70645,37.4711634 1848.55426,37.9098126 1848.40206,38.3484618 L1853.81586,38.3484618 L1853.81586,40.1907886 L1851.09809,40.1907886 C1851.40248,40.8487624 1851.64165,41.4628713 1851.83733,42.0331153 L1849.9675,42.7130216 C1849.70659,41.8357232 1849.4022,41.0022896 1849.05433,40.1907886 L1847.61934,40.1907886 Z M1856.72932,40.1907886 C1856.38144,40.8926273 1855.99008,41.5725336 1855.55524,42.1866425 L1853.81586,41.068087 C1854.816,39.6644095 1855.55524,38.1730021 1855.99008,36.55 L1857.94688,36.9886492 C1857.81642,37.4711634 1857.66423,37.9098126 1857.51203,38.3484618 L1863.62158,38.3484618 L1863.62158,40.1907886 L1860.55594,40.1907886 C1860.96904,40.9145598 1861.29517,41.5944661 1861.55608,42.208575 L1859.66451,42.9323462 C1859.31663,41.9673179 1858.90353,41.068087 1858.44695,40.1907886 L1856.72932,40.1907886 Z M1848.18464,47.0556489 C1847.14102,47.4942982 1846.05391,47.9329474 1844.92331,48.3496641 L1843.92317,46.5292699 C1847.66283,45.301052 1850.75022,43.7877122 1853.22882,41.9892504 L1854.53336,41.9892504 C1857.22939,43.919307 1860.31677,45.4545793 1863.83901,46.5731348 L1862.83887,48.3715966 C1861.68653,47.9768123 1860.59942,47.5381631 1859.59928,47.0775814 L1859.59928,48.6128537 L1848.18464,48.6128537 L1848.18464,47.0556489 Z M1858.9905,46.7924594 C1857.07719,45.871296 1855.35956,44.8404703 1853.88109,43.6780499 C1852.44611,44.8185379 1850.72847,45.8493636 1848.74994,46.7924594 L1858.9905,46.7924594 Z" id="qianbgshouyelianjie"></path>
        </g>
    </g>
</svg>