<?xml version="1.0" encoding="UTF-8"?>
<svg width="40px" height="11px" viewBox="0 0 40 11" version="1.1" xmlns="http://www.w3.org/2000/svg" xmlns:xlink="http://www.w3.org/1999/xlink">
    <!-- Generator: Sketch 47.1 (45422) - http://www.bohemiancoding.com/sketch -->
    <title>开始签署 copy</title>
    <desc>Created with Sketch.</desc>
    <defs></defs>
    <g id="下载" stroke="none" stroke-width="1" fill="none" fill-rule="evenodd">
        <g id="正文" transform="translate(-1623.000000, -62.000000)" fill="#D2D2D2">
            <path d="M1624.12,63.43 L1631.91,63.43 L1631.91,64.13 L1630.24,64.13 L1630.24,66.78 L1632.43,66.78 L1632.43,67.47 L1630.24,67.47 L1630.24,71.9 L1629.51,71.9 L1629.51,67.47 L1626.62,67.47 C1626.53,68.5 1626.34,69.35 1626.04,70.03 C1625.66,70.87 1625.03,71.52 1624.15,71.98 L1623.76,71.36 C1624.57,70.9 1625.14,70.29 1625.46,69.53 C1625.67,68.95 1625.81,68.27 1625.89,67.47 L1623.58,67.47 L1623.58,66.78 L1625.93,66.78 C1625.93,66.65 1625.94,66.53 1625.94,66.43 L1625.94,64.13 L1624.12,64.13 L1624.12,63.43 Z M1626.68,64.13 L1626.68,66.43 C1626.68,66.55 1626.67,66.67 1626.67,66.78 L1629.51,66.78 L1629.51,64.13 L1626.68,64.13 Z M1634.64,62.79 L1635.35,62.85 C1635.26,63.53 1635.17,64.16 1635.08,64.74 L1636.56,64.74 L1636.56,65.16 C1636.48,66.78 1636.2,68.17 1635.72,69.35 C1636.19,69.84 1636.58,70.28 1636.88,70.68 L1636.4,71.24 C1636.12,70.87 1635.79,70.47 1635.4,70.05 C1635,70.81 1634.51,71.47 1633.91,72.03 L1633.46,71.46 C1634.05,70.92 1634.53,70.28 1634.91,69.52 C1634.51,69.11 1634.08,68.69 1633.62,68.25 C1633.86,67.38 1634.07,66.44 1634.25,65.43 L1633.45,65.43 L1633.45,64.74 L1634.37,64.74 C1634.47,64.11 1634.56,63.46 1634.64,62.79 Z M1635.21,68.83 C1635.59,67.83 1635.81,66.7 1635.88,65.43 L1634.97,65.43 C1634.78,66.48 1634.59,67.35 1634.39,68.04 C1634.68,68.31 1634.95,68.57 1635.21,68.83 Z M1641.84,67.75 L1641.84,72.01 L1641.15,72.01 L1641.15,71.41 L1638.09,71.41 L1638.09,72.01 L1637.4,72.01 L1637.4,67.75 L1641.84,67.75 Z M1638.09,70.73 L1641.15,70.73 L1641.15,68.41 L1638.09,68.41 L1638.09,70.73 Z M1637.01,66.85 C1638.64,66.75 1640.12,66.6 1641.45,66.41 C1641.57,66.66 1641.68,66.92 1641.8,67.19 L1642.47,66.87 C1641.99,65.82 1641.47,64.86 1640.92,63.98 L1640.3,64.28 C1640.59,64.74 1640.87,65.25 1641.15,65.8 C1640.14,65.96 1639.07,66.08 1637.95,66.15 C1638.55,65.38 1639.14,64.35 1639.74,63.05 L1639.06,62.82 C1638.2,64.78 1637.48,65.9 1636.9,66.2 L1637.01,66.85 Z M1650.34,68.56 L1651.04,68.75 C1650.78,69.58 1650.46,70.33 1650.08,70.99 L1652.23,70.99 L1652.23,71.66 L1643.79,71.66 L1643.79,70.99 L1649.31,70.99 C1649.7,70.31 1650.04,69.5 1650.34,68.56 Z M1645.56,68.68 C1645.85,69.22 1646.11,69.85 1646.34,70.55 L1645.69,70.72 C1645.49,70.08 1645.23,69.47 1644.91,68.89 L1645.56,68.68 Z M1647.87,68.48 C1648.1,69.06 1648.31,69.72 1648.49,70.47 L1647.85,70.64 C1647.68,69.96 1647.47,69.31 1647.21,68.69 L1647.87,68.48 Z M1645.41,67.52 L1650.6,67.52 L1650.6,68.16 L1645.41,68.16 L1645.41,67.52 Z M1645.01,64.33 C1644.75,64.83 1644.46,65.29 1644.13,65.71 L1643.51,65.32 C1644.13,64.56 1644.58,63.72 1644.86,62.8 L1645.56,62.95 C1645.48,63.21 1645.39,63.45 1645.3,63.69 L1647.93,63.69 L1647.93,64.33 L1646.49,64.33 C1646.65,64.68 1646.79,65.01 1646.89,65.31 L1646.23,65.55 C1646.1,65.13 1645.95,64.72 1645.77,64.33 L1645.01,64.33 Z M1649.22,64.33 C1649.04,64.68 1648.85,65.01 1648.64,65.31 L1648.03,64.92 C1648.5,64.28 1648.84,63.58 1649.05,62.8 L1649.74,62.95 C1649.66,63.21 1649.58,63.45 1649.5,63.69 L1652.42,63.69 L1652.42,64.33 L1650.83,64.33 C1651.05,64.71 1651.22,65.06 1651.35,65.4 L1650.69,65.64 C1650.51,65.19 1650.31,64.75 1650.09,64.33 L1649.22,64.33 Z M1647.77,65.32 L1648.23,65.32 C1649.47,66.23 1650.91,66.95 1652.54,67.47 L1652.19,68.09 C1650.55,67.53 1649.16,66.81 1648,65.91 C1646.94,66.75 1645.54,67.47 1643.8,68.08 L1643.46,67.46 C1645.18,66.88 1646.62,66.17 1647.77,65.32 Z M1654.44,63.2 L1661.52,63.2 L1661.52,65.1 L1658.03,65.1 L1658.03,65.75 L1660.16,65.75 L1660.16,66.33 L1658.03,66.33 L1658.03,67.05 L1659.31,67.05 C1660.09,66.57 1660.77,66.01 1661.34,65.37 L1661.93,65.68 C1661.46,66.18 1660.92,66.64 1660.32,67.05 L1662.43,67.05 L1662.43,67.67 L1659.29,67.67 C1658.77,67.94 1658.23,68.18 1657.65,68.4 L1661.17,68.4 L1661.17,72.07 L1660.46,72.07 L1660.46,71.62 L1656.21,71.62 L1656.21,72.07 L1655.5,72.07 L1655.5,69.05 C1655,69.17 1654.48,69.27 1653.95,69.37 L1653.56,68.77 C1655.3,68.59 1656.81,68.22 1658.1,67.67 L1653.62,67.67 L1653.62,67.05 L1657.33,67.05 L1657.33,66.33 L1654.71,66.33 L1654.71,65.75 L1657.33,65.75 L1657.33,65.1 L1654.44,65.1 L1654.44,63.2 Z M1660.83,64.57 L1660.83,63.74 L1659.36,63.74 L1659.36,64.57 L1660.83,64.57 Z M1658.71,64.57 L1658.71,63.74 L1657.27,63.74 L1657.27,64.57 L1658.71,64.57 Z M1656.62,64.57 L1656.62,63.74 L1655.13,63.74 L1655.13,64.57 L1656.62,64.57 Z M1656.21,70.28 L1656.21,71.03 L1660.46,71.03 L1660.46,70.28 L1656.21,70.28 Z M1660.46,69.73 L1660.46,68.96 L1656.21,68.96 L1656.21,69.73 L1660.46,69.73 Z" id="开始签署-copy"></path>
        </g>
    </g>
</svg>