<?xml version="1.0" encoding="UTF-8"?>
<svg width="32px" height="34px" viewBox="0 0 32 34" version="1.1" xmlns="http://www.w3.org/2000/svg" xmlns:xlink="http://www.w3.org/1999/xlink">
    <!-- Generator: Sketch 47.1 (45422) - http://www.bohemiancoding.com/sketch -->
    <title>Combined Shape</title>
    <desc>Created with Sketch.</desc>
    <defs></defs>
    <g id="下载" stroke="none" stroke-width="1" fill="none" fill-rule="evenodd">
        <g id="正文" transform="translate(-1627.000000, -21.000000)" fill-rule="nonzero" fill="#D2D2D2">
            <g id="logo" transform="translate(1627.000000, 21.000000)">
                <path d="M26.4026734,28.6169858 L22.9462385,23.5601914 C22.064381,24.0237574 21.0624222,24.2857143 20,24.2857143 C17.5501067,24.2857143 15.4217225,22.8927827 14.3461061,20.8468836 L6.38029062,23.9242899 C6.39331351,24.0429482 6.4,24.1635411 6.4,24.2857143 C6.4,26.0740649 4.9673112,27.5238095 3.2,27.5238095 C1.4326888,27.5238095 0,26.0740649 0,24.2857143 C0,22.4973637 1.4326888,21.047619 3.2,21.047619 C4.2771282,21.047619 5.22995851,21.5861371 5.80989633,22.411619 L13.7781531,19.3332696 C13.6616973,18.844617 13.6,18.3343613 13.6,17.8095238 C13.6,14.2328226 16.4653776,11.3333333 20,11.3333333 C20.3183525,11.3333333 20.631276,11.3568541 20.937166,11.4022721 L22.4107883,6.04927765 C21.4483598,5.49096609 20.8,4.44114832 20.8,3.23809524 C20.8,1.44974462 22.2326888,0 24,0 C25.7673112,0 27.2,1.44974462 27.2,3.23809524 C27.2,5.02644586 25.7673112,6.47619048 24,6.47619048 C23.9847324,6.47619048 23.9694897,6.47608228 23.9542727,6.47586661 L22.4784541,11.836839 C24.7822752,12.8169164 26.4,15.1220511 26.4,17.8095238 C26.4,19.7294388 25.5743794,21.4542241 24.2628078,22.6401665 L27.7281115,27.7099361 C28.0632169,27.5894174 28.4240368,27.5238095 28.8,27.5238095 C30.5673112,27.5238095 32,28.9735541 32,30.7619048 C32,32.5502554 30.5673112,34 28.8,34 C27.0326888,34 25.6,32.5502554 25.6,30.7619048 C25.6,29.9392174 25.9031909,29.1881871 26.4026734,28.6169858 Z M20,22.6666667 C22.6509668,22.6666667 24.8,20.4920497 24.8,17.8095238 C24.8,15.1269979 22.6509668,12.952381 20,12.952381 C17.3490332,12.952381 15.2,15.1269979 15.2,17.8095238 C15.2,20.4920497 17.3490332,22.6666667 20,22.6666667 Z M24,4.85714286 C24.8836556,4.85714286 25.6,4.13227055 25.6,3.23809524 C25.6,2.34391993 24.8836556,1.61904762 24,1.61904762 C23.1163444,1.61904762 22.4,2.34391993 22.4,3.23809524 C22.4,4.13227055 23.1163444,4.85714286 24,4.85714286 Z M3.2,25.9047619 C4.0836556,25.9047619 4.8,25.1798896 4.8,24.2857143 C4.8,23.391539 4.0836556,22.6666667 3.2,22.6666667 C2.3163444,22.6666667 1.6,23.391539 1.6,24.2857143 C1.6,25.1798896 2.3163444,25.9047619 3.2,25.9047619 Z M28.8,32.3809524 C29.6836556,32.3809524 30.4,31.6560801 30.4,30.7619048 C30.4,29.8677295 29.6836556,29.1428571 28.8,29.1428571 C27.9163444,29.1428571 27.2,29.8677295 27.2,30.7619048 C27.2,31.6560801 27.9163444,32.3809524 28.8,32.3809524 Z" id="Combined-Shape"></path>
            </g>
        </g>
    </g>
</svg>