<?xml version="1.0" encoding="UTF-8"?>
<svg width="56px" height="52px" viewBox="0 0 56 52" version="1.1" xmlns="http://www.w3.org/2000/svg" xmlns:xlink="http://www.w3.org/1999/xlink">
    <!-- Generator: Sketch 47.1 (45422) - http://www.bohemiancoding.com/sketch -->
    <title>zhenyiqian_xiazaierweima</title>
    <desc>Created with Sketch.</desc>
    <defs></defs>
    <g id="下载" stroke="none" stroke-width="1" fill="none" fill-rule="evenodd">
        <g id="正文" transform="translate(-1726.000000, -21.000000)" fill-rule="nonzero" fill="#D2D2D2">
            <path d="M1755.01851,64.0009754 L1755.5,64.0037679 C1755.5,68.6993407 1751.69825,72.5 1746.99507,72.5 L1735.00493,72.5 C1730.30495,72.5 1726.5,68.6974906 1726.5,63.9943671 L1726.5,30.0056329 C1726.5,25.3049959 1730.30162,21.5 1735.00493,21.5 L1746.99507,21.5 C1751.69373,21.5 1755.5,25.3057152 1755.5,30.006823 L1755.5,36.0444336 L1754.5,36.0444336 L1754.5,30.006823 C1754.5,30.0045484 1754.5,30.0022741 1754.5,30 L1727.5,30 C1727.5,30.0018775 1727.5,30.0037551 1727.5,30.0056329 L1727.5,63.9943671 C1727.5,63.9962449 1727.5,63.9981225 1727.5,64 L1754.5,64 C1754.5,63.9993227 1754.5,63.9986454 1754.5,63.9979681 L1754.85034,64 L1755.01851,64 L1755.01851,64.0009754 Z M1754.43391,65 L1727.56657,65 C1728.05703,68.6737522 1731.19791,71.5 1735.00493,71.5 L1746.99507,71.5 C1750.80605,71.5 1753.94525,68.673744 1754.43391,65 Z M1754.43319,29 C1753.94186,25.3280528 1750.80023,22.5 1746.99507,22.5 L1735.00493,22.5 C1731.19533,22.5 1728.05684,25.3278257 1727.56658,29 L1754.43319,29 Z M1743.73991,46.1336477 L1743.73991,47.682352 C1743.73991,47.892382 1743.90833,48.0623742 1744.11633,48.0623742 L1745.60231,48.0623742 L1743.73991,46.1336477 Z M1745.78475,48.6056338 L1744.11633,48.6056338 C1743.61125,48.6056338 1743.20179,48.1925318 1743.20179,47.682352 L1743.20179,45.6720322 L1737.82063,45.6720322 L1737.82063,54.9074447 L1745.78475,54.9074447 L1745.78475,48.6056338 Z M1737.28251,54.9074447 L1737.28251,45.4547531 C1737.28251,45.2747191 1737.42704,45.1287726 1737.60552,45.1287726 L1743.52109,45.1287726 L1746.32287,48.0303304 L1746.32287,54.9074447 L1754.17937,54.9074447 L1754.17937,46.5412723 C1754.17937,46.3612382 1754.3239,46.2152918 1754.50238,46.2152918 L1758.4843,46.2152918 L1758.4843,46.2150324 L1758.8036,46.2152918 L1761.60538,49.1168495 L1761.60538,49.3659378 L1761.60538,49.3661972 L1761.60538,54.9074447 L1764.67265,54.9074447 L1764.67265,41.5432596 L1734.53812,41.5432596 L1734.53812,54.9074447 L1737.28251,54.9074447 Z M1761.06726,49.3661972 L1759.39885,49.3661972 C1758.89376,49.3661972 1758.4843,48.9530951 1758.4843,48.4429153 L1758.4843,46.7585513 L1754.71749,46.7585513 L1754.71749,54.9074447 L1761.06726,54.9074447 L1761.06726,49.3661972 Z M1763.27354,43.7706237 L1752.34978,43.7706237 L1752.34978,45.1339453 C1752.34978,45.2811055 1752.22497,45.4004024 1752.08072,45.4004024 C1751.93212,45.4004024 1751.81166,45.2835704 1751.81166,45.1339453 L1751.81166,43.4938213 C1751.81166,43.3466611 1751.93647,43.2273642 1752.08072,43.2273642 C1752.09024,43.2273642 1752.09964,43.2278436 1752.1089,43.2287804 C1752.11826,43.227844 1752.12777,43.2273642 1752.13743,43.2273642 L1757.56951,43.2273642 L1757.56951,41.8640427 C1757.56951,41.7168824 1757.69431,41.5975855 1757.83857,41.5975855 C1757.98716,41.5975855 1758.10762,41.7144175 1758.10762,41.8640427 L1758.10762,43.2273642 L1763.5397,43.2273642 C1763.54018,43.2273642 1763.54067,43.2273655 1763.54115,43.2273681 C1763.54163,43.2273655 1763.54212,43.2273642 1763.5426,43.2273642 C1763.6912,43.2273642 1763.81166,43.3441962 1763.81166,43.4938213 L1763.81166,45.1339453 C1763.81166,45.2811055 1763.68685,45.4004024 1763.5426,45.4004024 C1763.394,45.4004024 1763.27354,45.2835704 1763.27354,45.1339453 L1763.27354,43.7706237 Z M1740.80085,43.1730382 L1741.56354,41.8332448 C1741.63712,41.7039746 1741.80487,41.6615841 1741.92979,41.7337095 C1742.05848,41.8080079 1742.10438,41.9708676 1742.02956,42.102303 L1741.20941,43.5430397 C1741.19517,43.5680635 1741.1774,43.5898318 1741.15709,43.6081441 C1741.10809,43.6738366 1741.02954,43.7162978 1740.93824,43.7162978 L1735.83306,43.7162978 C1735.68255,43.7162978 1735.56054,43.5902976 1735.56054,43.444668 C1735.56054,43.294651 1735.67855,43.1730382 1735.83306,43.1730382 L1740.80085,43.1730382 Z M1774.26652,46.1612764 C1774.32394,46.1411423 1774.37477,46.1018486 1774.40721,46.0456657 L1775.7207,43.7706237 L1777.33741,43.7706237 L1777.91423,45.9233558 C1777.9552,46.0762593 1778.10379,46.1609221 1778.24869,46.1220948 C1778.38936,46.0844031 1778.47879,45.9313377 1778.43898,45.7827499 L1777.89983,43.7706237 L1779.96094,43.7706237 C1780.10317,43.7706237 1780.22422,43.6490109 1780.22422,43.498994 C1780.22422,43.3533643 1780.10634,43.2273642 1779.96094,43.2273642 L1776.03435,43.2273642 L1776.74905,41.9894647 C1776.81749,41.8709239 1776.77763,41.6990469 1776.64894,41.6247485 C1776.52402,41.552623 1776.35643,41.5932776 1776.28303,41.7204064 L1773.94118,45.7766075 C1773.92488,45.8048481 1773.91472,45.8361159 1773.91045,45.8683703 L1773.6139,45.6244332 C1773.51494,45.5430293 1773.37295,45.5430293 1773.27399,45.6244332 L1766.00942,51.6002883 C1765.89422,51.69505 1765.87692,51.866148 1765.97079,51.9824464 C1766.06465,52.0987448 1766.23413,52.1162038 1766.34933,52.0214421 L1773.44395,46.1853939 L1777.87527,49.8306078 C1776.13883,51.1932678 1774.88631,52.6268555 1774.88631,52.6268555 L1773.13186,51.2880184 L1772.36784,51.9231284 L1772.36771,51.9231463 L1775.4036,54.8729835 C1776.24279,52.9829132 1777.53944,51.3545767 1778.47569,50.3245173 L1780.53856,52.0214421 C1780.65376,52.1162038 1780.82324,52.0987448 1780.9171,51.9824464 C1781.01097,51.866148 1780.99367,51.69505 1780.87848,51.6002883 L1778.84551,49.9279641 C1779.3178,49.4345527 1779.63229,49.1556123 1779.63229,49.1556123 L1779.33935,48.7927641 C1778.98794,49.0139352 1778.64575,49.2505048 1778.31736,49.4935104 L1774.26652,46.1612764 Z M1769.14646,43.2273642 L1769.86116,41.9894647 C1769.9296,41.8709239 1769.88974,41.6990469 1769.76105,41.6247485 C1769.63612,41.552623 1769.46854,41.5932776 1769.39514,41.7204064 L1767.05329,45.7766075 C1766.98485,45.8951482 1767.02472,46.0670252 1767.1534,46.1413236 C1767.27833,46.2134491 1767.44592,46.1727945 1767.51931,46.0456657 L1768.83281,43.7706237 L1770.50333,43.7706237 L1771.08015,45.9233558 C1771.12112,46.0762593 1771.26971,46.1609221 1771.41461,46.1220948 C1771.55528,46.0844031 1771.64471,45.9313377 1771.6049,45.7827499 L1771.06575,43.7706237 L1773.12686,43.7706237 C1773.26909,43.7706237 1773.39013,43.6490109 1773.39013,43.498994 C1773.39013,43.3533643 1773.27226,43.2273642 1773.12686,43.2273642 L1769.14646,43.2273642 Z M1773.30942,41 L1782,41 L1782,55.4507042 L1773.30942,55.4507042 L1734,55.4507042 L1734,41 L1773.30942,41 Z M1770.83408,49.9637827 L1776.01323,49.9637827 C1776.16182,49.9637827 1776.28229,49.8421699 1776.28229,49.6921529 C1776.28229,49.5421359 1776.16182,49.4205231 1776.01323,49.4205231 L1770.83408,49.4205231 C1770.68548,49.4205231 1770.56502,49.5421359 1770.56502,49.6921529 C1770.56502,49.8421699 1770.68548,49.9637827 1770.83408,49.9637827 Z M1769.80033,52.3832958 L1772.18595,54.7689091 C1772.28403,54.8669915 1772.46123,54.8738364 1772.56631,54.7687626 C1772.66831,54.6667617 1772.67144,54.4933961 1772.56645,54.3884032 L1770.18084,52.0027899 C1770.08276,51.9047075 1769.90555,51.8978626 1769.80048,52.0029364 C1769.69848,52.1049373 1769.69534,52.2783029 1769.80033,52.3832958 Z M1742.01794,43.444668 C1742.01794,43.294651 1742.14382,43.1730382 1742.29256,43.1730382 L1747.77022,43.1730382 C1747.92189,43.1730382 1748.04484,43.2990384 1748.04484,43.444668 C1748.04484,43.594685 1747.91896,43.7162978 1747.77022,43.7162978 L1742.29256,43.7162978 C1742.14089,43.7162978 1742.01794,43.5902976 1742.01794,43.444668 Z M1743.713,56.4285714 C1743.56441,56.4285714 1743.44395,56.3069586 1743.44395,56.1569416 C1743.44395,56.0069247 1743.56441,55.8853119 1743.713,55.8853119 L1748.35403,55.8853119 C1748.50263,55.8853119 1748.62309,56.0069247 1748.62309,56.1569416 C1748.62309,56.3069586 1748.50263,56.4285714 1748.35403,56.4285714 L1743.713,56.4285714 Z M1735.80269,56.4285714 C1735.65409,56.4285714 1735.53363,56.3069586 1735.53363,56.1569416 C1735.53363,56.0069247 1735.65409,55.8853119 1735.80269,55.8853119 L1740.28229,55.8853119 C1740.43088,55.8853119 1740.55134,56.0069247 1740.55134,56.1569416 C1740.55134,56.3069586 1740.43088,56.4285714 1740.28229,56.4285714 L1735.80269,56.4285714 Z M1769.11211,56.4285714 C1768.96351,56.4285714 1768.84305,56.3069586 1768.84305,56.1569416 C1768.84305,56.0069247 1768.96351,55.8853119 1769.11211,55.8853119 L1778.05807,55.8853119 C1778.20667,55.8853119 1778.32713,56.0069247 1778.32713,56.1569416 C1778.32713,56.3069586 1778.20667,56.4285714 1778.05807,56.4285714 L1769.11211,56.4285714 Z M1759.02242,47.15802 L1759.02242,48.4429153 C1759.02242,48.6529454 1759.19084,48.8229376 1759.39885,48.8229376 L1760.6496,48.8229376 L1759.02242,47.15802 Z M1755.52466,50.1810865 C1755.52466,50.0310695 1755.64665,49.9094567 1755.79533,49.9094567 L1757.78315,49.9094567 C1757.93263,49.9094567 1758.05381,50.0354569 1758.05381,50.1810865 C1758.05381,50.3311035 1757.93183,50.4527163 1757.78315,50.4527163 L1755.79533,50.4527163 C1755.64584,50.4527163 1755.52466,50.3267162 1755.52466,50.1810865 Z M1755.52466,52.7887324 C1755.52466,52.6387154 1755.64039,52.5171026 1755.8035,52.5171026 L1759.92744,52.5171026 C1760.08144,52.5171026 1760.20628,52.6431028 1760.20628,52.7887324 C1760.20628,52.9387494 1760.09055,53.0603622 1759.92744,53.0603622 L1755.8035,53.0603622 C1755.6495,53.0603622 1755.52466,52.934362 1755.52466,52.7887324 Z M1738.6278,48.334004 C1738.6278,48.183987 1738.74979,48.0623742 1738.89847,48.0623742 L1740.88629,48.0623742 C1741.03577,48.0623742 1741.15695,48.1883744 1741.15695,48.334004 C1741.15695,48.484021 1741.03496,48.6056338 1740.88629,48.6056338 L1738.89847,48.6056338 C1738.74898,48.6056338 1738.6278,48.4796337 1738.6278,48.334004 Z M1738.6278,52.7887324 C1738.6278,52.6387154 1738.73988,52.5171026 1738.90527,52.5171026 L1744.80774,52.5171026 C1744.96098,52.5171026 1745.0852,52.6431028 1745.0852,52.7887324 C1745.0852,52.9387494 1744.97312,53.0603622 1744.80774,53.0603622 L1738.90527,53.0603622 C1738.75203,53.0603622 1738.6278,52.934362 1738.6278,52.7887324 Z M1738.6278,50.5613682 C1738.6278,50.4113512 1738.73988,50.2897384 1738.90527,50.2897384 L1744.80774,50.2897384 C1744.96098,50.2897384 1745.0852,50.4157386 1745.0852,50.5613682 C1745.0852,50.7113852 1744.97312,50.832998 1744.80774,50.832998 L1738.90527,50.832998 C1738.75203,50.832998 1738.6278,50.7069978 1738.6278,50.5613682 Z M1737.5,27 C1737.22386,27 1737,26.7761424 1737,26.5 C1737,26.2238576 1737.22386,26 1737.5,26 L1744.5,26 C1744.77614,26 1745,26.2238576 1745,26.5 C1745,26.7761424 1744.77614,27 1744.5,27 L1737.5,27 Z M1739.5,68 C1739.22386,68 1739,67.7761424 1739,67.5 C1739,67.2238576 1739.22386,67 1739.5,67 L1742.5,67 C1742.77614,67 1743,67.2238576 1743,67.5 C1743,67.7761424 1742.77614,68 1742.5,68 L1739.5,68 Z" id="zhenyiqian_xiazaierweima"></path>
        </g>
    </g>
</svg>